<svg width="11" height="10" viewBox="0 0 11 10" fill="none" xmlns="http://www.w3.org/2000/svg">
<path fill-rule="evenodd" clip-rule="evenodd" d="M10.225 0.282539C9.93254 -0.00996093 9.46004 -0.00996093 9.16754 0.282539L5.50004 3.94254L1.83254 0.275039C1.54004 -0.0174609 1.06754 -0.0174609 0.775039 0.275039C0.482539 0.567539 0.482539 1.04004 0.775039 1.33254L4.44254 5.00004L0.775039 8.66754C0.482539 8.96004 0.482539 9.43254 0.775039 9.72504C1.06754 10.0175 1.54004 10.0175 1.83254 9.72504L5.50004 6.05754L9.16754 9.72504C9.46004 10.0175 9.93254 10.0175 10.225 9.72504C10.5175 9.43254 10.5175 8.96004 10.225 8.66754L6.55754 5.00004L10.225 1.33254C10.51 1.04754 10.51 0.567539 10.225 0.282539Z" fill="black"/>
</svg>
