<svg width="109" height="29" viewBox="0 0 109 29" fill="none" xmlns="http://www.w3.org/2000/svg">
<path d="M39.2996 22.6449C40.079 22.6453 40.841 22.424 41.4894 22.0089C42.1377 21.5937 42.6433 21.0035 42.9422 20.3126C43.2411 19.6218 43.3199 18.8614 43.1686 18.1276C43.0173 17.3938 42.6428 16.7195 42.0923 16.19C41.5418 15.6605 40.8401 15.2994 40.0758 15.1526C39.3116 15.0057 38.5191 15.0795 37.7986 15.3648C37.0781 15.6501 36.4619 16.1339 36.0279 16.7552C35.5938 17.3765 35.3614 18.1074 35.3601 18.8554C35.366 19.8572 35.7827 20.8164 36.52 21.5256C37.2572 22.2348 38.2558 22.6369 39.2996 22.6449ZM43.2413 9.77486H49.7034V27.949H43.2413V25.881C42.0629 27.4804 40.0625 28.2998 38.0008 28.2998C33.3166 28.2933 28.7754 24.7042 28.7754 18.8161C28.7754 12.9281 33.3166 9.2998 38.0008 9.2998C39.9103 9.2998 42.0629 10.1192 43.2413 11.7187V9.77486Z" fill="white"/>
<path d="M57.4939 20.8467C51.6508 19.2881 51.7313 16.051 51.7313 14.7234C51.7313 11.992 55.1728 9.2998 59.3343 9.2998C63.2566 9.2998 67.5389 10.8606 67.4987 15.5801H61.5348C61.5348 14.4487 60.8639 13.943 59.6541 13.943C58.8536 13.943 58.0888 14.2547 58.0888 14.9566C58.0888 15.4253 58.3303 15.8548 59.4909 16.1272L62.8116 17.0254C67.615 18.2723 68.0153 21.3546 68.0153 22.5253C68.0153 26.5428 63.5317 28.2998 59.5691 28.2998C55.6066 28.2998 51.4473 26.0371 51.4473 21.8626H57.409C57.409 22.643 58.0083 23.7351 59.5691 23.7351C60.6112 23.7351 61.5303 23.2664 61.5303 22.5253C61.5303 21.9781 61.2105 21.8233 59.8509 21.4724L57.4939 20.8467Z" fill="white"/>
<path d="M88.0718 23.8136C86.2586 26.5036 83.5037 28.2998 79.9588 28.2998C74.4841 28.2998 69.7598 24.594 69.7598 18.8194C69.7598 13.0449 74.4841 9.2998 79.9588 9.2998C83.5037 9.2998 86.219 11.0939 88.0322 13.786L82.9118 16.8292C82.577 16.2784 82.1034 15.8235 81.5374 15.5089C80.9715 15.1944 80.3326 15.0311 79.6837 15.0351C79.0226 15.0303 78.3715 15.1956 77.7941 15.5148C77.2168 15.834 76.7329 16.2963 76.3899 16.8562C76.047 17.4162 75.8566 18.0548 75.8374 18.7096C75.8182 19.3643 75.9709 20.0127 76.2805 20.5915C76.5902 21.1702 77.0461 21.6595 77.6038 22.0113C78.1615 22.3632 78.8018 22.5656 79.4622 22.5988C80.1225 22.632 80.7802 22.4948 81.371 22.2007C81.9618 21.9066 82.4654 21.4656 82.8325 20.9208L88.0718 23.8136Z" fill="white"/>
<path d="M98.5987 22.6692C99.3783 22.6692 100.14 22.4429 100.789 22.0188C101.437 21.5947 101.942 20.9919 102.24 20.2866C102.539 19.5813 102.617 18.8053 102.465 18.0566C102.313 17.3079 101.937 16.6202 101.386 16.0804C100.835 15.5406 100.132 15.173 99.3677 15.0241C98.6031 14.8752 97.8105 14.9516 97.0903 15.2437C96.37 15.5358 95.7544 16.0305 95.3213 16.6653C94.8881 17.3 94.657 18.0462 94.657 18.8096C94.6647 19.8309 95.0825 20.8082 95.82 21.5304C96.5576 22.2526 97.5557 22.6617 98.5987 22.6692ZM102.538 3.2998H109V28.0741H102.906V25.4061C101.807 27.5938 99.3707 28.4298 97.2977 28.4298C92.6248 28.4298 88.0723 24.768 88.0723 18.7607C88.0723 12.7533 92.6248 9.05149 97.2977 9.05149C99.5682 9.05149 101.321 9.92747 102.538 11.2392V3.2998Z" fill="white"/>
<g clip-path="url(#clip0)">
<path d="M22.0491 18.416H15.6279V22.6493H22.0491V18.416Z" fill="white" fill-opacity="0.75"/>
<path d="M22.0491 12.0669H15.6279V18.4177H22.0491V12.0669Z" fill="white"/>
<path d="M22.0491 22.6489H15.6279V28.9998H22.0491V22.6489Z" fill="white"/>
<path d="M15.622 12.0669H8.58301V18.4177H15.622V12.0669Z" fill="white" fill-opacity="0.75"/>
<path d="M15.622 22.6489H8.58301V28.9998H15.622V22.6489Z" fill="white" fill-opacity="0.75"/>
<path d="M6.44286 20.5334C6.44436 20.2538 6.50091 19.9773 6.60928 19.7195C6.71765 19.4618 6.87573 19.228 7.07449 19.0313C7.27324 18.8347 7.50878 18.6791 7.76765 18.5735C8.02653 18.4679 8.30367 18.4143 8.58325 18.4158V12.0669C3.85387 12.0669 0.0292969 15.8572 0.0292969 20.5334C0.0292969 25.2096 3.85387 28.9999 8.58325 28.9999V22.6491C8.30376 22.6508 8.02666 22.5975 7.7678 22.4921C7.50893 22.3867 7.27338 22.2313 7.0746 22.0348C6.87582 21.8383 6.71771 21.6046 6.60932 21.347C6.50092 21.0894 6.44436 20.8129 6.44286 20.5334Z" fill="white"/>
<path d="M12.8168 1H3.55762L22.0703 10.1546C22.0703 10.1546 22.0703 1 12.8168 1Z" fill="white" fill-opacity="0.75"/>
<path d="M3.55762 1C3.55762 1 3.55762 10.1546 12.8168 10.1546H22.0703L3.55762 1Z" fill="white"/>
</g>
<defs>
<clipPath id="clip0">
<rect width="22.1667" height="28" fill="white" transform="translate(0 1)"/>
</clipPath>
</defs>
</svg>
