<svg width="102" height="36" viewBox="0 0 102 36" fill="none" xmlns="http://www.w3.org/2000/svg">
<g clip-path="url(#clip0)">
<path d="M44.3806 27.4352C45.0198 27.4371 45.6451 27.2492 46.1774 26.8952C46.7097 26.5413 47.1249 26.0373 47.3704 25.4472C47.6159 24.857 47.6806 24.2072 47.5564 23.5802C47.4322 22.9532 47.1246 22.3772 46.6726 21.9252C46.2206 21.4732 45.6446 21.1656 45.0176 21.0414C44.3906 20.9172 43.7408 20.9819 43.1506 21.2274C42.5605 21.4729 42.0565 21.8881 41.7025 22.4204C41.3486 22.9527 41.1607 23.578 41.1626 24.2172C41.1677 25.0691 41.5084 25.8846 42.1108 26.487C42.7132 27.0894 43.5287 27.43 44.3806 27.4352ZM47.6374 16.5272H52.9164V31.9461H47.6374V30.1864C47.1414 30.8472 46.494 31.3793 45.7496 31.7379C45.0053 32.0966 44.1857 32.2713 43.3598 32.2475C42.3299 32.2292 41.3143 32.0041 40.3733 31.5853C39.4323 31.1666 38.5851 30.5628 37.8821 29.81C37.1792 29.0572 36.6348 28.1706 36.2815 27.2032C35.9282 26.2357 35.773 25.207 35.8253 24.1783C35.8253 19.1716 39.5391 16.08 43.3598 16.08C44.1836 16.0694 44.9987 16.25 45.7409 16.6076C46.4831 16.9653 47.1323 17.4902 47.6374 18.1411V16.5272Z" fill="black"/>
<path d="M59.3037 25.9089C54.4428 24.577 54.5206 21.8257 54.5206 20.698C54.5206 18.3744 57.3788 16.0801 60.83 16.0801C64.0771 16.0801 67.6353 17.412 67.6353 21.4271H62.6383C62.6383 20.4549 62.0744 20.0271 61.0828 20.0271C60.4217 20.0271 59.7898 20.2994 59.7898 20.8924C59.7898 21.291 59.9842 21.6604 60.9467 21.8646L63.7077 22.6229C67.6839 23.7117 68.0534 26.3366 68.0534 27.338C68.0534 30.7503 64.3396 32.2475 61.0536 32.2475C57.7677 32.2475 54.3164 30.3031 54.3164 26.7644H59.2648C59.2692 26.9893 59.3199 27.2109 59.4139 27.4153C59.5079 27.6197 59.6431 27.8025 59.8111 27.9522C59.979 28.1019 60.1761 28.2153 60.3899 28.2852C60.6037 28.3552 60.8297 28.3802 61.0536 28.3588C61.9189 28.3588 62.6772 27.9602 62.6772 27.338C62.6772 26.8713 62.4147 26.7352 61.287 26.4338L59.3037 25.9089Z" fill="black"/>
<path d="M84.2207 28.4268C83.5035 29.5885 82.5025 30.5487 81.312 31.2171C80.1216 31.8854 78.7807 32.24 77.4154 32.2475C72.8072 32.2475 68.8213 29.0879 68.8213 24.1784C68.8213 19.2688 72.8072 16.0801 77.4154 16.0801C78.7821 16.0802 80.1258 16.4316 81.3176 17.1007C82.5093 17.7698 83.509 18.734 84.2207 19.9008L79.9042 22.4868C79.6236 22.0165 79.2246 21.628 78.7469 21.3602C78.2692 21.0924 77.7297 20.9545 77.1821 20.9604C76.6261 20.958 76.0789 21.0996 75.594 21.3715C75.109 21.6434 74.7028 22.0364 74.4149 22.512C74.127 22.9877 73.9672 23.5298 73.9512 24.0856C73.9351 24.6413 74.0634 25.1918 74.3234 25.6832C74.5834 26.1747 74.9663 26.5904 75.4348 26.8898C75.9033 27.1892 76.4414 27.3621 76.9966 27.3917C77.5518 27.4213 78.1052 27.3065 78.6028 27.0586C79.1005 26.8106 79.5254 26.438 79.8361 25.9769L84.2207 28.4268Z" fill="black"/>
<path d="M92.7954 27.435C93.4342 27.435 94.0586 27.2455 94.5896 26.8904C95.1206 26.5353 95.5343 26.0306 95.7783 25.4403C96.0223 24.85 96.0856 24.2005 95.9603 23.5741C95.835 22.9478 95.5266 22.3727 95.0742 21.9217C94.6219 21.4706 94.0458 21.164 93.4191 21.0406C92.7923 20.9171 92.1431 20.9824 91.5535 21.2282C90.9639 21.474 90.4604 21.8892 90.107 22.4213C89.7535 22.9533 89.5658 23.5783 89.5677 24.2171C89.5729 25.0707 89.9149 25.8877 90.5193 26.4903C91.1238 27.093 91.9418 27.4325 92.7954 27.435ZM96.0133 11.4912H101.292V31.9071H96.305V29.7197C95.8531 30.5259 95.185 31.1898 94.3759 31.6364C93.5668 32.083 92.649 32.2947 91.726 32.2474C90.6962 32.2291 89.6805 32.0039 88.7395 31.5852C87.7985 31.1665 86.9513 30.5627 86.2483 29.8099C85.5454 29.0571 85.0011 28.1705 84.6477 27.203C84.2944 26.2356 84.1392 25.2069 84.1916 24.1782C84.1406 23.1485 84.2965 22.1189 84.6501 21.1504C85.0036 20.1819 85.5475 19.294 86.2498 18.5391C86.9521 17.7843 87.7985 17.1778 88.7391 16.7554C89.6796 16.333 90.6952 16.1033 91.726 16.0799C92.5299 16.0588 93.329 16.2112 94.0688 16.5265C94.8086 16.8419 95.4719 17.313 96.0133 17.9076V11.4912Z" fill="black"/>
<path d="M28.1156 22.3892H19.9492V27.8334H28.1156V22.3892Z" fill="#EF4060"/>
<path d="M28.1156 14.2231H19.9492V22.3895H28.1156V14.2231Z" fill="#BE1F40"/>
<path d="M28.1156 27.8335H19.9492V35.9998H28.1156V27.8335Z" fill="#BE1F40"/>
<path d="M19.9494 14.2231H10.8887V22.3895H19.9494V14.2231Z" fill="#EF4060"/>
<path d="M19.9494 27.8335H10.8887V35.9998H19.9494V27.8335Z" fill="#EF4060"/>
<path d="M8.16635 25.1115C8.1625 24.7516 8.23006 24.3945 8.36513 24.0608C8.5002 23.7272 8.7001 23.4236 8.95326 23.1678C9.20641 22.9119 9.5078 22.7088 9.83998 22.5702C10.1722 22.4315 10.5285 22.3602 10.8885 22.3602V14.1938C8.00067 14.1938 5.23114 15.341 3.18916 17.383C1.14717 19.425 0 22.1945 0 25.0823C0 27.9701 1.14717 30.7396 3.18916 32.7816C5.23114 34.8236 8.00067 35.9708 10.8885 35.9708V27.8044C10.1715 27.8045 9.48355 27.5217 8.97388 27.0175C8.46422 26.5133 8.17403 25.8284 8.16635 25.1115Z" fill="#BE1F40"/>
<path d="M16.3425 0H4.56934L28.1157 11.7732C28.1157 11.7732 28.1156 0 16.3425 0Z" fill="#005E47"/>
<path d="M4.56934 0C4.56934 0 4.56934 11.7732 16.3425 11.7732H28.1157L4.56934 0Z" fill="#00A77E"/>
</g>
<defs>
<clipPath id="clip0">
<rect width="101.292" height="36" fill="white"/>
</clipPath>
</defs>
</svg>
