<svg width="35" height="27" viewBox="0 0 35 27" fill="none" xmlns="http://www.w3.org/2000/svg">
<path d="M8.3 26.6C5.63333 26.6 3.66667 25.7667 2.4 24.1C1.13333 22.4333 0.5 20.4 0.5 18C0.5 16.1333 0.966666 14.1333 1.9 12C2.83333 9.8 4.2 7.63333 6 5.5C7.8 3.36667 9.96667 1.53333 12.5 0L15.1 3.5C12.4333 5.36666 10.4333 7.23333 9.1 9.1C7.76667 10.9667 7.03333 12.8 6.9 14.6H9.3C10.6333 14.6 11.7333 14.8333 12.6 15.3C13.4667 15.7 14.1 16.2667 14.5 17C14.9 17.7333 15.1 18.6333 15.1 19.7C15.1 21.6333 14.4667 23.2667 13.2 24.6C12 25.9333 10.3667 26.6 8.3 26.6ZM28.1 26.6C25.4333 26.6 23.4667 25.7667 22.2 24.1C20.9333 22.4333 20.3 20.4 20.3 18C20.3 16.1333 20.7667 14.1333 21.7 12C22.6333 9.8 24 7.63333 25.8 5.5C27.6 3.36667 29.7667 1.53333 32.3 0L34.9 3.5C32.2333 5.36666 30.2333 7.23333 28.9 9.1C27.5667 10.9667 26.8333 12.8 26.7 14.6H29.1C30.4333 14.6 31.5333 14.8333 32.4 15.3C33.2667 15.7 33.9 16.2667 34.3 17C34.7 17.7333 34.9 18.6333 34.9 19.7C34.9 21.6333 34.2667 23.2667 33 24.6C31.8 25.9333 30.1667 26.6 28.1 26.6Z" fill="#00A77E"/>
</svg>